{"asset":{"version":"2.0","generator":"Blockbench 4.9.4 glTF exporter"},"scenes":[{"nodes":[4],"name":"blockbench_export"}],"scene":0,"nodes":[{"name":"body","mesh":0},{"name":"treads","mesh":1},{"name":"head","mesh":2},{"rotation":[-0.7071067811865475,0,0,0.7071067811865476],"translation":[2.7259940336778397e-18,0.3571428571428571,-0.40476190476190466],"name":"gun","mesh":3},{"children":[0,1,2,3]}],"bufferViews":[{"buffer":0,"byteOffset":0,"byteLength":288,"target":34962,"byteStride":12},{"buffer":0,"byteOffset":288,"byteLength":288,"target":34962,"byteStride":12},{"buffer":0,"byteOffset":576,"byteLength":192,"target":34962,"byteStride":8},{"buffer":0,"byteOffset":768,"byteLength":72,"target":34963},{"buffer":0,"byteOffset":840,"byteLength":1440,"target":34962,"byteStride":12},{"buffer":0,"byteOffset":2280,"byteLength":1440,"target":34962,"byteStride":12},{"buffer":0,"byteOffset":3720,"byteLength":960,"target":34962,"byteStride":8},{"buffer":0,"byteOffset":4680,"byteLength":360,"target":34963},{"buffer":0,"byteOffset":5040,"byteLength":192,"target":34962,"byteStride":12},{"buffer":0,"byteOffset":5232,"byteLength":192,"target":34962,"byteStride":12},{"buffer":0,"byteOffset":5424,"byteLength":128,"target":34962,"byteStride":8},{"buffer":0,"byteOffset":5552,"byteLength":36,"target":34963},{"buffer":0,"byteOffset":5588,"byteLength":2160,"target":34962,"byteStride":12},{"buffer":0,"byteOffset":7748,"byteLength":2160,"target":34962,"byteStride":12},{"buffer":0,"byteOffset":9908,"byteLength":1440,"target":34962,"byteStride":8},{"buffer":0,"byteOffset":11348,"byteLength":480,"target":34963}],"buffers":[{"byteLength":11828,"uri":"data:application/octet-stream;base64,"}],"accessors":[{"bufferView":0,"componentType":5126,"count":24,"max":[0.25,0.25,0.4375],"min":[-0.25,0.125,-0.4375],"type":"VEC3"},{"bufferView":1,"componentType":5126,"count":24,"max":[1,1,1],"min":[-1,-1,-0.7071067690849304],"type":"VEC3"},{"bufferView":2,"componentType":5126,"count":24,"max":[0.6875,0.53125],"min":[0,0.09375],"type":"VEC2"},{"bufferView":3,"componentType":5123,"count":36,"max":[23],"min":[0],"type":"SCALAR"},{"bufferView":4,"componentType":5126,"count":120,"max":[0.3125,0.125,0.5],"min":[-0.3125,0,-0.5],"type":"VEC3"},{"bufferView":5,"componentType":5126,"count":120,"max":[1,1,1],"min":[-1,-1,-1],"type":"VEC3"},{"bufferView":6,"componentType":5126,"count":120,"max":[0.71875,0.390625],"min":[0,0],"type":"VEC2"},{"bufferView":7,"componentType":5123,"count":180,"max":[119],"min":[0],"type":"SCALAR"},{"bufferView":8,"componentType":5126,"count":16,"max":[0.25,0.5,0.375],"min":[-0.25,0.25,-0.25],"type":"VEC3"},{"bufferView":9,"componentType":5126,"count":16,"max":[0.7071067690849304,0.8320503234863281,0.5547001957893372],"min":[-0.7071067690849304,-1,-0.7071067690849304],"type":"VEC3"},{"bufferView":10,"componentType":5126,"count":16,"max":[0.546875,0.4946390390396118],"min":[0.28125,0],"type":"VEC2"},{"bufferView":11,"componentType":5123,"count":18,"max":[15],"min":[0],"type":"SCALAR"},{"bufferView":12,"componentType":5126,"count":180,"max":[0.0907163918018341,0.1755952388048172,0.08749999850988388],"min":[-0.0907163918018341,-0.324404776096344,-0.08749999850988388],"type":"VEC3"},{"bufferView":13,"componentType":5126,"count":180,"max":[0.9523201584815979,1,1],"min":[-0.9523201584815979,-1,-1],"type":"VEC3"},{"bufferView":14,"componentType":5126,"count":180,"max":[0.53125,0.6418281197547913],"min":[0,0.453125],"type":"VEC2"},{"bufferView":15,"componentType":5123,"count":240,"max":[179],"min":[0],"type":"SCALAR"}],"materials":[{"pbrMetallicRoughness":{"metallicFactor":0,"roughnessFactor":1,"baseColorTexture":{"index":0}},"alphaMode":"MASK","alphaCutoff":0.05,"doubleSided":true}],"textures":[{"sampler":0,"source":0}],"samplers":[{"magFilter":9728,"minFilter":9728,"wrapS":33071,"wrapT":33071}],"images":[{"mimeType":"image/png","uri":"data:image/png;base64,"}],"meshes":[{"primitives":[{"mode":4,"attributes":{"POSITION":0,"NORMAL":1,"TEXCOORD_0":2},"indices":3,"material":0}]},{"primitives":[{"mode":4,"attributes":{"POSITION":4,"NORMAL":5,"TEXCOORD_0":6},"indices":7,"material":0}]},{"primitives":[{"mode":4,"attributes":{"POSITION":8,"NORMAL":9,"TEXCOORD_0":10},"indices":11,"material":0}]},{"primitives":[{"mode":4,"attributes":{"POSITION":12,"NORMAL":13,"TEXCOORD_0":14},"indices":15,"material":0}]}]}